<svg width="16" height="14" viewBox="0 0 16 14" fill="none" xmlns="http://www.w3.org/2000/svg">
<rect width="9" height="1" transform="matrix(-1 0 0 1 9 4)" fill="black"/>
<rect width="1" height="3" transform="matrix(-1 0 0 1 1 5)" fill="black"/>
<rect width="9" height="1" transform="matrix(-1 0 0 1 9 8)" fill="black"/>
<rect width="1" height="4" transform="matrix(-1 0 0 1 9 9)" fill="black"/>
<rect width="1" height="1" transform="matrix(-1 0 0 1 10 11)" fill="black"/>
<rect width="1" height="1" transform="matrix(-1 0 0 1 11 10)" fill="black"/>
<rect width="1" height="1" transform="matrix(-1 0 0 1 12 9)" fill="black"/>
<rect width="1" height="1" transform="matrix(-1 0 0 1 13 8)" fill="black"/>
<rect width="1" height="3" transform="matrix(-1 0 0 1 14 5)" fill="black"/>
<rect width="1" height="1" transform="matrix(-1 0 0 1 15 6)" fill="black"/>
<rect width="1" height="1" transform="matrix(-1 0 0 1 13 4)" fill="black"/>
<rect width="1" height="1" transform="matrix(-1 0 0 1 12 3)" fill="black"/>
<rect width="1" height="1" transform="matrix(-1 0 0 1 11 2)" fill="black"/>
<rect width="1" height="4" transform="matrix(-1 0 0 1 9 0)" fill="black"/>
<rect width="1" height="1" transform="matrix(-1 0 0 1 10 1)" fill="black"/>
<rect width="1" height="4" transform="matrix(-1 0 0 1 10 2)" fill="white"/>
<rect width="8" height="1" transform="matrix(-1 0 0 1 9 5)" fill="white"/>
<rect width="1" height="3" transform="matrix(-1 0 0 1 2 5)" fill="white"/>
<rect width="7" height="1" transform="matrix(-1 0 0 1 8 9)" fill="white"/>
<rect width="1" height="3" transform="matrix(-1 0 0 1 10 8)" fill="white"/>
<rect width="1" height="2" transform="matrix(-1 0 0 1 10 12)" fill="white"/>
<rect width="1" height="1" transform="matrix(-1 0 0 1 11 12)" fill="white"/>
<rect x="11" y="11" width="1" height="1" fill="white"/>
<rect x="12" y="10" width="1" height="1" fill="white"/>
<rect x="13" y="9" width="1" height="1" fill="white"/>
<rect x="14" y="8" width="1" height="1" fill="white"/>
<rect x="15" y="7" width="1" height="1" fill="white"/>
<rect width="12" height="3" transform="matrix(-1 0 0 1 13 5)" fill="black"/>
<rect width="2" height="9" transform="matrix(-1 0 0 1 11 2)" fill="black"/>
<rect x="12" y="9" width="1" height="1" transform="rotate(180 12 9)" fill="black"/>
<rect x="12" y="5" width="1" height="1" transform="rotate(180 12 5)" fill="black"/>
</svg>
