<svg width="16" height="14" viewBox="0 0 16 14" fill="none" xmlns="http://www.w3.org/2000/svg">
<rect x="6" y="4" width="9" height="1" fill="black"/>
<rect x="14" y="5" width="1" height="3" fill="black"/>
<rect x="6" y="8" width="9" height="1" fill="black"/>
<rect x="6" y="9" width="1" height="4" fill="black"/>
<rect x="5" y="11" width="1" height="1" fill="black"/>
<rect x="4" y="10" width="1" height="1" fill="black"/>
<rect x="3" y="9" width="1" height="1" fill="black"/>
<rect x="2" y="8" width="1" height="1" fill="black"/>
<rect x="1" y="5" width="1" height="3" fill="black"/>
<rect y="6" width="1" height="1" fill="black"/>
<rect x="2" y="4" width="1" height="1" fill="black"/>
<rect x="3" y="3" width="1" height="1" fill="black"/>
<rect x="4" y="2" width="1" height="1" fill="black"/>
<rect x="6" width="1" height="4" fill="black"/>
<rect x="5" y="1" width="1" height="1" fill="black"/>
<rect x="7" y="1" width="1" height="3" fill="white"/>
<rect x="7" y="5" width="7" height="1" fill="white"/>
<rect x="15" y="5" width="1" height="5" fill="white"/>
<rect x="7" y="9" width="8" height="1" fill="white"/>
<rect x="7" y="10" width="1" height="4" fill="white"/>
<rect x="2" y="6" width="1" height="2" fill="white"/>
<rect x="3" y="5" width="1" height="1" fill="white"/>
<rect x="4" y="4" width="1" height="1" fill="white"/>
<rect x="5" y="3" width="1" height="1" fill="white"/>
<rect x="2" y="5" width="12" height="3" fill="black"/>
<rect width="3" height="1" transform="matrix(1 0 0 -1 3 9)" fill="black"/>
<rect width="2" height="2" transform="matrix(1 0 0 -1 4 11)" fill="black"/>
<rect width="2" height="2" transform="matrix(1 0 0 -1 4 4)" fill="black"/>
<rect width="3" height="2" transform="matrix(1 0 0 -1 3 5)" fill="black"/>
</svg>
