<svg width="19" height="20" viewBox="0 0 19 20" fill="none" xmlns="http://www.w3.org/2000/svg">
<rect x="1" y="19" width="17" height="1" fill="black"/>
<rect x="1" y="19" width="17" height="1" fill="black"/>
<rect x="17" y="10" width="1" height="10" fill="black"/>
<rect x="17" y="10" width="1" height="10" fill="black"/>
<rect x="11" y="13" width="1" height="7" fill="black"/>
<rect x="11" y="13" width="1" height="7" fill="black"/>
<rect x="7" y="13" width="1" height="7" fill="black"/>
<rect x="7" y="13" width="1" height="7" fill="black"/>
<rect x="7" y="13" width="5" height="1" fill="black"/>
<rect x="7" y="13" width="5" height="1" fill="black"/>
<rect x="16" y="10" width="3" height="1" fill="black"/>
<rect x="16" y="10" width="3" height="1" fill="black"/>
<rect y="10" width="3" height="1" fill="black"/>
<rect y="10" width="3" height="1" fill="black"/>
<rect y="9" width="1" height="2" fill="black"/>
<rect y="9" width="1" height="2" fill="black"/>
<rect x="18" y="9" width="1" height="2" fill="black"/>
<rect x="18" y="9" width="1" height="2" fill="black"/>
<rect x="15" y="9" width="1" height="1" fill="black"/>
<rect x="15" y="9" width="1" height="1" fill="black"/>
<rect x="4" y="8" width="1" height="1" fill="black"/>
<rect x="4" y="8" width="1" height="1" fill="black"/>
<rect x="17" y="8" width="1" height="1" fill="black"/>
<rect x="17" y="8" width="1" height="1" fill="black"/>
<rect x="16" y="7" width="1" height="1" fill="black"/>
<rect x="16" y="7" width="1" height="1" fill="black"/>
<rect x="13" y="7" width="1" height="1" fill="black"/>
<rect x="13" y="7" width="1" height="1" fill="black"/>
<rect x="5" y="7" width="1" height="1" fill="black"/>
<rect x="5" y="7" width="1" height="1" fill="black"/>
<rect x="2" y="7" width="1" height="1" fill="black"/>
<rect x="2" y="7" width="1" height="1" fill="black"/>
<rect x="1" y="8" width="1" height="1" fill="black"/>
<rect x="1" y="8" width="1" height="1" fill="black"/>
<rect x="3" y="6" width="1" height="1" fill="black"/>
<rect x="3" y="6" width="1" height="1" fill="black"/>
<rect x="6" y="6" width="1" height="1" fill="black"/>
<rect x="6" y="6" width="1" height="1" fill="black"/>
<rect x="12" y="6" width="1" height="1" fill="black"/>
<rect x="12" y="6" width="1" height="1" fill="black"/>
<rect x="15" width="1" height="7" fill="black"/>
<rect x="15" width="1" height="7" fill="black"/>
<rect x="13" width="1" height="5" fill="black"/>
<rect x="13" width="1" height="5" fill="black"/>
<rect x="14" width="1" height="1" fill="black"/>
<rect x="14" width="1" height="1" fill="black"/>
<rect x="14" y="5" width="1" height="1" fill="black"/>
<rect x="14" y="5" width="1" height="1" fill="black"/>
<rect x="11" y="5" width="1" height="1" fill="black"/>
<rect x="11" y="5" width="1" height="1" fill="black"/>
<rect x="7" y="5" width="1" height="1" fill="black"/>
<rect x="7" y="5" width="1" height="1" fill="black"/>
<rect x="4" y="5" width="1" height="1" fill="black"/>
<rect x="4" y="5" width="1" height="1" fill="black"/>
<rect x="5" y="4" width="1" height="1" fill="black"/>
<rect x="5" y="4" width="1" height="1" fill="black"/>
<rect x="9" y="3" width="1" height="1" fill="black"/>
<rect x="9" y="3" width="1" height="1" fill="black"/>
<rect x="12" y="3" width="1" height="1" fill="black"/>
<rect x="12" y="3" width="1" height="1" fill="black"/>
<rect x="11" y="2" width="1" height="1" fill="black"/>
<rect x="11" y="2" width="1" height="1" fill="black"/>
<rect x="9" width="1" height="1" fill="black"/>
<rect x="9" width="1" height="1" fill="black"/>
<rect x="7" y="2" width="1" height="1" fill="black"/>
<rect x="7" y="2" width="1" height="1" fill="black"/>
<rect x="6" y="3" width="1" height="1" fill="black"/>
<rect x="6" y="3" width="1" height="1" fill="black"/>
<rect x="14" y="1" width="1" height="4" fill="black"/>
<rect x="14" y="1" width="1" height="4" fill="#808080"/>
<rect x="8" y="14" width="3" height="5" fill="black"/>
<rect x="8" y="14" width="3" height="5" fill="#D45C5C"/>
<rect x="16" y="9" width="2" height="1" fill="black"/>
<rect x="16" y="9" width="2" height="1" fill="#E43131"/>
<rect x="15" y="8" width="2" height="1" fill="black"/>
<rect x="15" y="8" width="2" height="1" fill="#E43131"/>
<rect x="14" y="7" width="2" height="1" fill="black"/>
<rect x="14" y="7" width="2" height="1" fill="#E43131"/>
<rect x="13" y="6" width="2" height="1" fill="black"/>
<rect x="13" y="6" width="2" height="1" fill="#E43131"/>
<rect x="12" y="5" width="2" height="1" fill="black"/>
<rect x="12" y="5" width="2" height="1" fill="#E43131"/>
<rect x="11" y="4" width="2" height="1" fill="black"/>
<rect x="11" y="4" width="2" height="1" fill="#E43131"/>
<rect x="10" y="3" width="2" height="1" fill="black"/>
<rect x="10" y="3" width="2" height="1" fill="#E43131"/>
<rect x="7" y="3" width="2" height="1" fill="black"/>
<rect x="7" y="3" width="2" height="1" fill="#E43131"/>
<rect x="6" y="4" width="2" height="1" fill="black"/>
<rect x="6" y="4" width="2" height="1" fill="#E43131"/>
<rect x="5" y="5" width="2" height="1" fill="black"/>
<rect x="5" y="5" width="2" height="1" fill="#E43131"/>
<rect x="4" y="6" width="2" height="1" fill="black"/>
<rect x="4" y="6" width="2" height="1" fill="#E43131"/>
<rect x="3" y="7" width="2" height="1" fill="black"/>
<rect x="3" y="7" width="2" height="1" fill="#E43131"/>
<rect x="2" y="8" width="2" height="1" fill="black"/>
<rect x="2" y="8" width="2" height="1" fill="#E43131"/>
<rect x="1" y="9" width="2" height="1" fill="black"/>
<rect x="1" y="9" width="2" height="1" fill="#E43131"/>
<rect x="8" y="1" width="3" height="2" fill="black"/>
<rect x="8" y="1" width="3" height="2" fill="#E43131"/>
<rect x="12" y="11" width="5" height="8" fill="black"/>
<rect x="12" y="11" width="5" height="8" fill="white"/>
<rect x="2" y="11" width="5" height="8" fill="black"/>
<rect x="2" y="11" width="5" height="8" fill="white"/>
<rect x="7" y="6" width="5" height="7" fill="black"/>
<rect x="7" y="6" width="5" height="7" fill="white"/>
<rect x="12" y="8" width="3" height="3" fill="black"/>
<rect x="12" y="8" width="3" height="3" fill="white"/>
<rect x="15" y="10" width="1" height="1" fill="black"/>
<rect x="15" y="10" width="1" height="1" fill="white"/>
<rect x="12" y="7" width="1" height="1" fill="black"/>
<rect x="12" y="7" width="1" height="1" fill="white"/>
<rect x="5" y="8" width="2" height="3" fill="black"/>
<rect x="5" y="8" width="2" height="3" fill="white"/>
<rect x="3" y="9" width="2" height="2" fill="black"/>
<rect x="3" y="9" width="2" height="2" fill="white"/>
<rect x="6" y="7" width="1" height="1" fill="black"/>
<rect x="6" y="7" width="1" height="1" fill="white"/>
<rect x="8" y="4" width="3" height="2" fill="black"/>
<rect x="8" y="4" width="3" height="2" fill="white"/>
<rect x="1" y="11" width="1" height="9" fill="black"/>
<rect x="1" y="11" width="1" height="9" fill="black"/>
<rect x="3" y="9" width="1" height="1" fill="black"/>
<rect x="3" y="9" width="1" height="1" fill="black"/>
<rect x="10" y="4" width="1" height="1" fill="black"/>
<rect x="10" y="4" width="1" height="1" fill="black"/>
<rect x="8" y="4" width="1" height="1" fill="black"/>
<rect x="8" y="4" width="1" height="1" fill="black"/>
<rect x="14" y="8" width="1" height="1" fill="black"/>
<rect x="14" y="8" width="1" height="1" fill="black"/>
<rect x="10" y="1" width="1" height="1" fill="black"/>
<rect x="10" y="1" width="1" height="1" fill="black"/>
<rect x="8" y="1" width="1" height="1" fill="black"/>
<rect x="8" y="1" width="1" height="1" fill="black"/>
</svg>
