<svg width="17" height="19" viewBox="0 0 17 19" fill="none" xmlns="http://www.w3.org/2000/svg">
<rect width="1" height="19" fill="black"/>
<rect x="1" y="18" width="16" height="1" fill="black"/>
<rect x="16" y="4" width="1" height="14" fill="black"/>
<rect x="12" y="4" width="4" height="1" fill="black"/>
<rect x="12" width="1" height="4" fill="black"/>
<rect x="13" y="1" width="1" height="1" fill="black"/>
<rect x="14" y="2" width="1" height="1" fill="black"/>
<rect x="15" y="3" width="1" height="1" fill="black"/>
<rect x="13" y="2" width="1" height="2" fill="#D9D9D9"/>
<rect x="14" y="3" width="1" height="1" fill="#D9D9D9"/>
<rect width="13" height="1" fill="black"/>
<rect x="1" y="1" width="11" height="4" fill="#D9D9D9"/>
<rect x="1" y="5" width="15" height="13" fill="#D9D9D9"/>
<rect x="8" y="4" width="1" height="5" fill="#62BE5A"/>
<rect x="9" y="5" width="1" height="3" fill="#62BE5A"/>
<rect x="10" y="6" width="1" height="1" fill="#62BE5A"/>
<rect x="6" y="6" width="2" height="1" fill="#62BE5A"/>
<rect x="5" y="7" width="1" height="3" fill="#62BE5A"/>
<rect x="11" y="10" width="1" height="3" fill="#62BE5A"/>
<rect x="9" y="13" width="1" height="1" fill="#62BE5A"/>
<rect x="8" y="12" width="1" height="4" fill="#62BE5A"/>
<rect x="7" y="12" width="1" height="3" fill="#62BE5A"/>
<rect x="6" y="13" width="1" height="1" fill="#62BE5A"/>
<rect x="8" y="11" width="1" height="1" fill="#62BE5A"/>
<rect x="10" y="13" width="1" height="1" fill="#62BE5A"/>
</svg>
